<svg xmlns="http://www.w3.org/2000/svg" version="1.1" xmlns:xlink="http://www.w3.org/1999/xlink" xmlns:svgjs="http://svgjs.dev/svgjs" width="1000" height="338" viewBox="0 0 1000 338"><g transform="matrix(1,0,0,1,-0.6060409529305844,-0.2513383208542166)"><svg viewBox="0 0 396 134" data-background-color="#ffffff" preserveAspectRatio="xMidYMid meet" height="338" width="1000" xmlns="http://www.w3.org/2000/svg" xmlns:xlink="http://www.w3.org/1999/xlink"><g id="tight-bounds" transform="matrix(1,0,0,1,0.23999221736050913,0.09964405969000723)"><svg viewBox="0 0 395.52 133.80071293736782" height="133.80071293736782" width="395.52"><g><svg viewBox="0 0 663.0827006743664 224.31466951523433" height="133.80071293736782" width="395.52"><g transform="matrix(1,0,0,1,267.56270067436634,63.166033917281034)"><svg viewBox="0 0 395.52 97.98260168067226" height="97.98260168067226" width="395.52"><g id="textblocktransform"><svg viewBox="0 0 395.52 97.98260168067226" height="97.98260168067226" width="395.52" id="textblock"><g><svg viewBox="0 0 395.52 97.98260168067226" height="97.98260168067226" width="395.52"><g transform="matrix(1,0,0,1,0,0)"><svg width="395.52" viewBox="2.299999952316284 -36.54999923706055 148.739990234375 36.849998474121094" height="97.98260168067226" data-palette-color="#2257bf"><path d="M14.55 0.3L14.55 0.3Q11.1 0.3 8.33-0.85 5.55-2 3.93-4.6 2.3-7.2 2.3-11.5L2.3-11.5 2.3-24.75Q2.3-29.05 3.93-31.65 5.55-34.25 8.33-35.4 11.1-36.55 14.55-36.55L14.55-36.55Q18-36.55 20.8-35.4 23.6-34.25 25.23-31.65 26.85-29.05 26.85-24.75L26.85-24.75 26.85-11.5Q26.85-7.2 25.23-4.6 23.6-2 20.8-0.85 18 0.3 14.55 0.3ZM14.55-6.5L14.55-6.5Q16.65-6.5 17.85-7.7 19.05-8.9 19.05-11.5L19.05-11.5 19.05-24.75Q19.05-27.35 17.85-28.55 16.65-29.75 14.55-29.75L14.55-29.75Q12.45-29.75 11.28-28.55 10.1-27.35 10.1-24.75L10.1-24.75 10.1-11.5Q10.1-8.9 11.28-7.7 12.45-6.5 14.55-6.5ZM52.3 0.3L52.3 0.3Q51.55 0.3 50.87-0.03 50.2-0.35 49.8-1.15L49.8-1.15 42.95-14.45 39.65-14.45 39.65-2.4Q39.65-1.2 38.42-0.6 37.2 0 35.75 0L35.75 0Q34.3 0 33.07-0.6 31.85-1.2 31.85-2.4L31.85-2.4 31.85-34.2Q31.85-35.15 32.5-35.85 33.15-36.55 34.25-36.55L34.25-36.55 44.6-36.55Q48.05-36.55 50.82-35.58 53.6-34.6 55.25-32.27 56.9-29.95 56.9-25.85L56.9-25.85Q56.9-23.05 56.12-21.03 55.35-19 53.97-17.7 52.6-16.4 50.85-15.7L50.85-15.7 56.95-4.65Q57.1-4.45 57.15-4.2 57.2-3.95 57.2-3.75L57.2-3.75Q57.2-2.8 56.45-1.85 55.7-0.9 54.57-0.3 53.45 0.3 52.3 0.3ZM39.65-29.75L39.65-20.45 44.6-20.45Q46.7-20.45 47.9-21.48 49.1-22.5 49.1-25.1L49.1-25.1Q49.1-27.75 47.9-28.75 46.7-29.75 44.6-29.75L44.6-29.75 39.65-29.75ZM82.25 0L64.45 0Q63.2 0 62.12-0.6 61.05-1.2 61.05-2.4L61.05-2.4 61.05-34.15Q61.05-35.35 62.12-35.95 63.2-36.55 64.45-36.55L64.45-36.55 82.25-36.55Q83.5-36.55 84.05-35.48 84.59-34.4 84.59-33.2L84.59-33.2Q84.59-31.8 84-30.78 83.4-29.75 82.25-29.75L82.25-29.75 68.84-29.75 68.84-21.3 76.34-21.3Q77.5-21.3 78.09-20.38 78.7-19.45 78.7-18.25L78.7-18.25Q78.7-17.25 78.15-16.28 77.59-15.3 76.34-15.3L76.34-15.3 68.84-15.3 68.84-6.8 82.25-6.8Q83.4-6.8 84-5.78 84.59-4.75 84.59-3.35L84.59-3.35Q84.59-2.15 84.05-1.07 83.5 0 82.25 0L82.25 0ZM109.19 0L91.39 0Q90.14 0 89.07-0.6 87.99-1.2 87.99-2.4L87.99-2.4 87.99-34.15Q87.99-35.35 89.07-35.95 90.14-36.55 91.39-36.55L91.39-36.55 109.19-36.55Q110.44-36.55 110.99-35.48 111.54-34.4 111.54-33.2L111.54-33.2Q111.54-31.8 110.94-30.78 110.34-29.75 109.19-29.75L109.19-29.75 95.79-29.75 95.79-21.3 103.29-21.3Q104.44-21.3 105.04-20.38 105.64-19.45 105.64-18.25L105.64-18.25Q105.64-17.25 105.09-16.28 104.54-15.3 103.29-15.3L103.29-15.3 95.79-15.3 95.79-6.8 109.19-6.8Q110.34-6.8 110.94-5.78 111.54-4.75 111.54-3.35L111.54-3.35Q111.54-2.15 110.99-1.07 110.44 0 109.19 0L109.19 0ZM126.44 0.3L126.44 0.3Q122.99 0.3 120.22-0.85 117.44-2 115.82-4.6 114.19-7.2 114.19-11.5L114.19-11.5 114.19-24.75Q114.19-29.05 115.82-31.65 117.44-34.25 120.19-35.4 122.94-36.55 126.19-36.55L126.19-36.55Q129.79-36.55 132.62-35.38 135.44-34.2 137.09-32 138.74-29.8 138.74-26.6L138.74-26.6Q138.74-24.35 137.79-23.63 136.84-22.9 134.84-22.9L134.84-22.9Q133.29-22.9 132.14-23.4 130.99-23.9 130.94-25.25L130.94-25.25Q130.94-26.15 130.72-27.2 130.49-28.25 129.57-29 128.64-29.75 126.49-29.75L126.49-29.75Q124.34-29.75 123.17-28.53 121.99-27.3 121.99-24.75L121.99-24.75 121.99-11.5Q121.99-8.95 123.17-7.73 124.34-6.5 126.44-6.5L126.44-6.5Q128.54-6.5 129.74-7.73 130.94-8.95 130.94-11.5L130.94-11.5 130.94-13.2 127.99-13.2Q126.89-13.2 126.27-14.13 125.64-15.05 125.64-16.2L125.64-16.2Q125.64-17.3 126.27-18.25 126.89-19.2 127.99-19.2L127.99-19.2 136.39-19.2Q137.54-19.2 138.14-18.48 138.74-17.75 138.74-16.75L138.74-16.75 138.74-11.5Q138.74-7.2 137.12-4.6 135.49-2 132.69-0.85 129.89 0.3 126.44 0.3ZM147.14 0L147.14 0Q145.69 0 144.46-0.6 143.24-1.2 143.24-2.4L143.24-2.4 143.24-34.2Q143.24-35.45 144.46-36 145.69-36.55 147.14-36.55L147.14-36.55Q148.59-36.55 149.81-36 151.04-35.45 151.04-34.2L151.04-34.2 151.04-2.4Q151.04-1.2 149.81-0.6 148.59 0 147.14 0Z" opacity="1" transform="matrix(1,0,0,1,0,0)" fill="#fff" class="wordmark-text-0" data-fill-palette-color="primary" id="text-0"></path></svg></g></svg></g></svg></g></svg></g><g><svg viewBox="0 0 244.43135999999996 224.31466951523433" height="224.31466951523433" width="244.43135999999996"><g><svg xmlns="http://www.w3.org/2000/svg" xmlns:xlink="http://www.w3.org/1999/xlink" version="1.1" x="0" y="0" viewBox="0 4.1150007247924805 100 91.77000427246094" enable-background="new 0 0 100 100" xml:space="preserve" height="224.31466951523433" width="244.43135999999996" class="icon-icon-0" data-fill-palette-color="accent" id="icon-0"><g fill="#fff" data-fill-palette-color="accent"><path fill="#fff" d="M30.68 77.104c6.053 5.047 13.839 8.082 22.333 8.082" data-fill-palette-color="accent"></path><path fill="#fff" d="M53.014 87.186c-8.619 0-17.005-3.035-23.614-8.546-0.849-0.707-0.963-1.969-0.255-2.817 0.708-0.848 1.968-0.961 2.817-0.255 5.892 4.913 13.369 7.618 21.053 7.618 1.104 0 2 0.896 2 2S54.118 87.186 53.014 87.186z" data-fill-palette-color="accent"></path></g><path fill="#fff" d="M37.567 55.561c0 10.375-8.411 18.791-18.785 18.791C8.409 74.352 0 65.936 0 55.561c0-10.373 8.409-18.782 18.782-18.782C29.156 36.779 37.567 45.188 37.567 55.561z" data-fill-palette-color="accent"></path><path fill="#fff" d="M94.295 78.299c0 9.71-7.87 17.586-17.583 17.586-9.708 0-17.579-7.876-17.579-17.586 0-9.708 7.871-17.579 17.579-17.579C86.425 60.72 94.295 68.591 94.295 78.299z" data-fill-palette-color="accent"></path><path fill="#fff" d="M100 39.324c0-7.28-5.9-13.181-13.182-13.181-1.654 0-3.223 0.336-4.68 0.897-6.115-7.645-15.166-12.843-25.432-13.857-2.289-5.33-7.574-9.068-13.745-9.068-8.266 0-14.969 6.703-14.969 14.969 0 1.106 0.131 2.181 0.359 3.219-2.786 2.468-5.241 5.37-7.245 8.676-0.686 1.131-0.325 2.603 0.805 3.287 1.13 0.686 2.602 0.325 3.287-0.805 5.951-9.814 16.348-15.675 27.812-15.675 17.924 0 32.504 14.581 32.504 32.503 0 2.212-0.223 4.415-0.66 6.554-0.265 1.298 0.569 2.562 1.865 2.825 0.161 0.033 0.322 0.049 0.481 0.049 1.112 0 2.11-0.779 2.342-1.912 0.388-1.89 0.623-3.822 0.713-5.765C95.869 50.525 100 45.412 100 39.324z" data-fill-palette-color="accent"></path></svg></g></svg></g></svg></g><defs></defs></svg><rect width="395.52" height="133.80071293736782" fill="none" stroke="none" visibility="hidden"></rect></g></svg></g></svg>